<?xml version="1.0" encoding="UTF-8" standalone="no"?>
<svg xmlns:dc="http://purl.org/dc/elements/1.1/" xmlns:cc="http://creativecommons.org/ns#" xmlns:rdf="http://www.w3.org/1999/02/22-rdf-syntax-ns#" xmlns:svg="http://www.w3.org/2000/svg" xmlns="http://www.w3.org/2000/svg" width="600" height="660" viewBox="0 0 100 110" version="1.1">
 <defs>
  <marker orient="auto" refY="0" refX="0" id="Arrow2Mend" style="overflow:visible">
   <path style="fill-rule:evenodd;stroke-width:0.625;stroke-linejoin:round" d="M 8.72,4 -2.2,0 8.72,-4 c -1.75,2.37 -1.74,5.62 0,8 z" transform="scale(-0.6,-0.6)" />
  </marker>
 </defs>
 <rect fill="#ff0" width="60" height="20" x="20" y="0" />
 <rect fill="#ff0" width="60" height="20" x="20" y="30" />
 <rect fill="#0f0" width="60" height="20" x="20" y="60" />
 <rect fill="#ff0" width="60" height="20" x="20" y="90" />
 <text xml:space="preserve" style="font-size:4px;text-align:center;text-anchor:middle;font-family:Droid Sans" x="50" y="12">Cool_Guy_On_a_Logi</text>
 <text xml:space="preserve" style="font-size:4px;text-align:center;text-anchor:middle;font-family:Droid Sans" x="50" y="42">N</text>
 <text xml:space="preserve" style="font-size:4px;text-align:center;text-anchor:middle;font-family:Droid Sans" x="50" y="72">Opytny Logist</text>
 <text xml:space="preserve" style="font-size:4px;text-align:center;text-anchor:middle;font-family:Droid Sans" x="50" y="102">Pan Kinder Surprise</text>
 <path style="stroke:#000;stroke-width:0.5;stroke-linecap:butt;stroke-linejoin:miter;stroke-miterlimit:4;stroke-opacity:1;stroke-dasharray:none;marker-end:url(#Arrow2Mend)" d="m 40,20 0,10" />
 <path style="stroke:#000;stroke-width:0.5;stroke-linecap:butt;stroke-linejoin:miter;stroke-miterlimit:4;stroke-opacity:1;stroke-dasharray:none;marker-end:url(#Arrow2Mend)" d="M 60,30 60,20" />
 <path style="stroke:#000;stroke-width:0.5;stroke-linecap:butt;stroke-linejoin:miter;stroke-miterlimit:4;stroke-opacity:1;stroke-dasharray:none;marker-end:url(#Arrow2Mend)" d="m 40,50 0,10" />
 <path style="stroke:#000;stroke-width:0.5;stroke-linecap:butt;stroke-linejoin:miter;stroke-miterlimit:4;stroke-opacity:1;stroke-dasharray:none;marker-end:url(#Arrow2Mend)" d="M 60,60 60,50" />
 <path style="stroke:#000;stroke-width:0.5;stroke-linecap:butt;stroke-linejoin:miter;stroke-miterlimit:4;stroke-opacity:1;stroke-dasharray:none;marker-end:url(#Arrow2Mend)" d="m 40,80 0,10" />
 <path style="stroke:#000;stroke-width:0.5;stroke-linecap:butt;stroke-linejoin:miter;stroke-miterlimit:4;stroke-opacity:1;stroke-dasharray:none;marker-end:url(#Arrow2Mend)" d="M 60,90 60,80" />
 <text xml:space="preserve" style="font-size:4px;font-family:Droid Sans" x="33" y="26">1</text>
 <text xml:space="preserve" style="font-size:4px;font-family:Droid Sans" x="65" y="26">1</text>
 <text xml:space="preserve" style="font-size:4px;font-family:Droid Sans" x="33" y="56">0</text>
 <text xml:space="preserve" style="font-size:4px;font-family:Droid Sans" x="65" y="56">1</text>
 <text xml:space="preserve" style="font-size:4px;font-family:Droid Sans" x="33" y="86">1</text>
 <text xml:space="preserve" style="font-size:4px;font-family:Droid Sans" x="65" y="86">1</text>
 <path style="stroke:#000;fill:none;stroke-width:0.5;stroke-linecap:butt;stroke-linejoin:miter;stroke-opacity:1;marker-end:url(#Arrow2Mend);stroke-miterlimit:4;stroke-dasharray:none" d="m 20,100 -8,0 0,-90 8,0" />
 <path style="stroke:#000;fill:none;stroke-width:0.5;stroke-linecap:butt;stroke-linejoin:miter;stroke-miterlimit:4;stroke-opacity:1;stroke-dasharray:none;marker-end:url(#Arrow2Mend)" d="m 80,8.8 8,0 0,90 -8,0" />
 <text xml:space="preserve" style="font-size:4px;font-family:Droid Sans" x="92" y="56">1</text>
 <text xml:space="preserve" style="font-size:4px;font-family:Droid Sans" x="6" y="56">1</text>
</svg>
